<svg xmlns:svg="http://www.w3.org/2000/svg" xmlns="http://www.w3.org/2000/svg" version="1.1" x="0" y="0" viewBox="0 0 79 83.2" xml:space="preserve" width="79" height="83.2"><path d="m0 41.3 0 0.3c0 0 0 0.1 0 0.1 0.2 9.4 6.1 11.5 6.4 11.6 0.1 0 0.2 0.1 0.3 0.1 7.9 0 14.2-6.4 15.6-8 0.8 0.6 1.9 1 2.9 1l2.2 0c1.1 0 2.1-0.3 2.9-1 1.5 1.6 7.7 8 15.6 8 0.1 0 0.2 0 0.3-0.1 0.3-0.1 6.2-2.2 6.3-11.6 0 0 0-0.1 0-0.1l0-0.3c0 0 0-0.1 0-0.1-0.2-9.4-6.1-11.5-6.3-11.6-0.1 0-0.2-0.1-0.3-0.1-7.9 0-14.1 6.4-15.6 8-0.8-0.6-1.8-1-2.9-1l-2.2 0c-1.1 0-2.1 0.4-2.9 1-1.4-1.6-7.7-8-15.6-8-0.1 0-0.2 0-0.3 0.1-0.3 0.1-6.2 2.2-6.4 11.7 0-0.1 0-0.1 0 0zm2.8 4c0-0.1 0.1-0.2 0.2-0.2 0.1 0 0.2 0.1 0.2 0.2 0.1 0.3-0.4 0.3-0.4 0zm8.4 4.6c0-0.1 0.1-0.2 0.2-0.2 0.1 0 0.2 0.1 0.2 0.2 0.1 0.3-0.4 0.3-0.4 0zm5.4-3.3c0-0.1 0.1-0.2 0.2-0.2 0.1 0 0.2 0.1 0.2 0.2 0.1 0.2-0.4 0.2-0.4 0zm18.7 0c0-0.1 0.1-0.2 0.2-0.2 0.1 0 0.2 0.1 0.2 0.2 0.1 0.2-0.4 0.2-0.4 0zm5.5 3.3c0-0.1 0.1-0.2 0.2-0.2 0.1 0 0.2 0.1 0.2 0.2 0 0.3-0.4 0.3-0.4 0zm8.4-4.6c0-0.1 0.1-0.2 0.2-0.2 0.1 0 0.2 0.1 0.2 0.2 0 0.3-0.4 0.3-0.4 0zm-11.1-11c0 0.3-0.5 0.3-0.5 0 0-0.1 0.1-0.2 0.2-0.2 0.1 0 0.3 0 0.3 0.2zm-2.2 0.9c0.4 0.7 1.1 1.2 2 1.2 1.2 0 2.2-1 2.2-2.2 0-0.5-0.1-0.9-0.4-1.3 1.8-0.8 3.9-1.4 6-1.5 0.8 0.4 4.8 2.5 4.8 9.9 0 0.7-0.1 1.3-0.1 1.9-0.3-0.2-0.7-0.3-1.1-0.3-1.2 0-2.2 1-2.2 2.2 0 1.2 1 2.2 2.1 2.2-1.3 2.6-3.1 3.5-3.6 3.8-0.9 0-1.9-0.1-2.8-0.3 0.2-0.3 0.3-0.7 0.3-1.1 0-1.2-1-2.2-2.2-2.2-1.1 0-2 0.8-2.2 1.8-0.7-0.3-1.3-0.7-1.9-1.1 0.5-0.4 0.9-1 0.9-1.8 0-1.2-1-2.2-2.2-2.2-0.9 0-1.7 0.6-2.1 1.4-0.9-0.9-1.6-1.5-1.8-1.8 0.5-0.9 0.7-2 0.6-3-0.1-0.7-0.3-1.3-0.6-1.8 0.5-0.5 2-2.1 4.3-3.8zm-10.7 3.3 2.2 0c1.5 0 2.7 1.1 2.9 2.5 0.1 0.8-0.2 1.7-0.7 2.3-0.5 0.6-1.3 1-2.2 1l-2.2 0c-0.8 0-1.6-0.4-2.2-1-0.6-0.6-0.8-1.5-0.7-2.3 0.2-1.4 1.5-2.5 2.9-2.5zm-10.4-4.2c0 0.3-0.5 0.3-0.5 0 0-0.1 0.1-0.2 0.2-0.2 0.1 0 0.3 0 0.3 0.2zm-7.9-2.8c2.1 0 4.1 0.6 5.9 1.4-0.3 0.4-0.4 0.8-0.4 1.3 0 1.2 1 2.2 2.2 2.2 0.9 0 1.7-0.5 2-1.3 2.4 1.7 4 3.4 4.4 3.9-0.3 0.5-0.5 1.1-0.6 1.8-0.1 1 0.1 2.1 0.6 3-0.3 0.3-1 1-2 2-0.3-0.9-1.1-1.5-2.1-1.5-1.2 0-2.2 1-2.2 2.2 0 0.8 0.4 1.4 0.9 1.8-0.6 0.4-1.3 0.8-1.9 1.1-0.2-1-1.1-1.8-2.2-1.8-1.2 0-2.2 1-2.2 2.2 0 0.4 0.1 0.8 0.3 1.1-0.8 0.2-1.7 0.3-2.6 0.3-0.5-0.2-2.3-1.2-3.6-3.8 1.1-0.1 2-1.1 2-2.2 0-1.2-1-2.2-2.2-2.2-0.3 0-0.6 0.1-0.9 0.2-0.1-0.6-0.1-1.2-0.1-1.9-0.1-7.3 3.9-9.4 4.7-9.8zM8 37.2c1.2 0 2.2-1 2.2-2.2 0-1.2-1-2.2-2.2-2.2-1.2 0-2.2 1-2.2 2.2 0 1.2 1 2.2 2.2 2.2zm0-2.5c0.1 0 0.2 0.1 0.2 0.2 0 0.3-0.5 0.3-0.5 0 0.1-0.1 0.2-0.2 0.3-0.2zM4.7 42.6c1.2 0 2.2-1 2.2-2.2 0-1.2-1-2.2-2.2-2.2-1.2 0-2.2 1-2.2 2.2 0 1.2 0.9 2.2 2.2 2.2zm0-2.5c0.1 0 0.2 0.1 0.2 0.2 0 0.3-0.5 0.3-0.5 0 0-0.1 0.1-0.2 0.3-0.2zM12.1 42.6c1.2 0 2.2-1 2.2-2.2 0-1.2-1-2.2-2.2-2.2-1.2 0-2.2 1-2.2 2.2 0 1.2 0.9 2.2 2.2 2.2zm0-2.5c0.1 0 0.2 0.1 0.2 0.2 0 0.3-0.5 0.3-0.5 0 0-0.1 0.1-0.2 0.3-0.2zM8.8 42.4c-1.2 0-2.2 1-2.2 2.2 0 1.2 1 2.2 2.2 2.2 1.2 0 2.2-1 2.2-2.2 0-1.2-1-2.2-2.2-2.2zm-0.3 2.3c0-0.1 0.1-0.2 0.2-0.2 0.1 0 0.2 0.1 0.2 0.2 0.1 0.2-0.4 0.2-0.4 0zM18.1 41.8c1.2 0 2.2-1 2.2-2.2 0-1.2-1-2.2-2.2-2.2-1.2 0-2.2 1-2.2 2.2 0 1.2 1 2.2 2.2 2.2zm0-2.4c0.1 0 0.2 0.1 0.2 0.2 0 0.3-0.5 0.3-0.5 0 0.1-0.1 0.2-0.2 0.3-0.2zM44.4 37.2c1.2 0 2.2-1 2.2-2.2 0-1.2-1-2.2-2.2-2.2-1.2 0-2.2 1-2.2 2.2 0 1.2 1 2.2 2.2 2.2zm0-2.5c0.1 0 0.2 0.1 0.2 0.2 0 0.3-0.5 0.3-0.5 0 0.1-0.1 0.2-0.2 0.3-0.2zM45.5 40.3c0 1.2 1 2.2 2.2 2.2 1.2 0 2.2-1 2.2-2.2 0-1.2-1-2.2-2.2-2.2-1.2 0-2.2 1-2.2 2.2zm2.3-0.2c0.1 0 0.2 0.1 0.2 0.2 0 0.3-0.5 0.3-0.5 0 0-0.1 0.1-0.2 0.3-0.2zM40.4 42.6c1.2 0 2.2-1 2.2-2.2 0-1.2-1-2.2-2.2-2.2-1.2 0-2.2 1-2.2 2.2 0 1.2 0.9 2.2 2.2 2.2zm0-2.5c0.1 0 0.2 0.1 0.2 0.2 0 0.3-0.5 0.3-0.5 0 0-0.1 0.1-0.2 0.3-0.2zM43.7 42.4c-1.2 0-2.2 1-2.2 2.2 0 1.2 1 2.2 2.2 2.2 1.2 0 2.2-1 2.2-2.2 0-1.2-1-2.2-2.2-2.2zm-0.3 2.3c0-0.1 0.1-0.2 0.2-0.2 0.1 0 0.2 0.1 0.2 0.2 0.1 0.2-0.4 0.2-0.4 0zM34.3 41.8c1.2 0 2.2-1 2.2-2.2 0-1.2-1-2.2-2.2-2.2-1.2 0-2.2 1-2.2 2.2 0 1.2 1 2.2 2.2 2.2zm0-2.4c0.1 0 0.2 0.1 0.2 0.2 0 0.3-0.5 0.3-0.5 0 0.1-0.1 0.2-0.2 0.3-0.2zM77.9 24.7c-0.1-0.1-0.1-0.2-0.2-0.2-6.1-4.8-14.6-3.8-17-3.4-0.3-0.9-0.8-1.7-1.6-2.4l-1.7-1.3c-0.9-0.7-1.9-1-2.9-1-0.1-2.2-1.1-11-7.3-15.9-0.1-0.1-0.2-0.1-0.3-0.2-0.3-0.1-6.3-2.1-12.2 5.2 0 0 0 0-0.1 0.1l-0.2 0.2c0 0 0 0 0 0.1-0.1 0.1-0.2 0.2-0.2 0.3 0 0-0.1 0.1-0.1 0.1-5.2 7.3-2 12.4-1.9 12.6 0.1 0.1 0.1 0.2 0.2 0.2 3.9 3 8.8 3.7 12.5 3.7 2.2 0 3.9-0.2 4.7-0.4 0.3 1 0.9 1.9 1.7 2.6l1.7 1.3c0.8 0.6 1.7 1 2.7 1 0.2 2.4 1.3 11 7.3 15.7 0.1 0.1 0.2 0.1 0.3 0.2 0.1 0 0.9 0.3 2.3 0.3 2.2 0 5.9-0.8 9.6-5.1 0 0 0 0 0 0 0.1-0.1 0.2-0.2 0.3-0.3 0 0 0 0 0.1-0.1 0 0 0 0 0 0l0.2-0.2c0 0 0 0 0-0.1 5.6-7.4 2.3-12.7 2.1-13zm-1.3 7.4-17.3 2.1c-0.3-0.8-0.6-1.6-0.8-2.4l18.5-2.3c0 0.9-0.1 1.7-0.4 2.6zm-18.9-4.5 17.7-2.3c0.3 0.2 0.6 0.4 0.9 0.6 0.1 0.2 0.4 0.8 0.6 1.6l-18.8 2.3c-0.2-0.8-0.3-1.6-0.4-2.2zm14.3-3.8-11.9 1.6c0-0.1 0.1-0.1 0.2-0.2 0.4-0.6 0.6-1.3 0.7-2 1.4-0.3 6.3-0.9 11 0.6zM46 2.1c0.3 0.2 0.6 0.5 0.8 0.8l1.9 17.7c-0.6 0.1-1.3 0.2-2.3 0.2L44.3 2c0.8-0.1 1.4 0.1 1.7 0.1zM44.5 20.9c-0.8 0-1.6-0.1-2.5-0.2L40 3.4c0.8-0.5 1.6-0.9 2.3-1.1L44.5 20.9ZM38.1 4.8 39.9 20.4c-0.9-0.2-1.7-0.4-2.6-0.7L35.9 7.2c0.1-0.1 0.1-0.2 0.2-0.2 0.7-0.9 1.3-1.6 2-2.2zm-3.9 5.1 1 8.7c-0.5-0.3-1-0.6-1.4-0.9-0.4-0.6-1.6-3.5 0.4-7.8zm16.7 7.9c-0.1 0.1-0.2 0.3-0.4 0.4L49.2 5.9c2.8 4.5 3.2 9.9 3.3 10.9-0.6 0.2-1.2 0.5-1.6 1zm1.6 5.7c-0.7-0.5-1.1-1.3-1.1-2.1 0-0.8 0.3-1.6 0.9-2.2 0.6-0.6 1.3-0.8 2-0.8 0.6 0 1.3 0.2 1.8 0.6l1.7 1.3c1.1 0.9 1.4 2.5 0.7 3.8-0.4 0.7-1.1 1.2-2 1.4-0.8 0.1-1.7-0.1-2.3-0.6l-1.7-1.4zm11.6 18c-0.5-0.4-0.9-0.8-1.3-1.2l8.7-1.1c-3.6 3.1-6.7 2.5-7.4 2.3zm9.9-4.8c-0.1 0.1-0.1 0.2-0.2 0.2l-12.4 1.6c-0.5-0.7-0.9-1.5-1.3-2.3l15.6-1.9c-0.5 0.8-1 1.6-1.7 2.4zM26.1 73.9c0 0.1 0.1 0.3 0.1 0.4 0 0 0 0.1 0 0.1 2.9 8.5 8.9 8.8 9.1 8.8 0 0 0 0 0 0 0.1 0 0.2 0 0.3 0 7.6-2.2 11.8-10.1 12.8-12 0.6 0.2 1.1 0.3 1.7 0.3 0.5 0 0.9-0.1 1.4-0.2l2.1-0.6c1-0.3 1.8-0.8 2.4-1.6 1.7 1 6.8 3.8 12.6 3.8 1.5 0 3-0.2 4.4-0.6 0.1 0 0.2-0.1 0.3-0.1 0.2-0.2 5.1-3.7 3-12.4 0 0 0-0.1 0-0.1 0-0.1-0.1-0.3-0.1-0.4 0 0 0-0.1 0-0.1 0 0 0 0 0 0l-0.1-0.3c0 0 0-0.1 0-0.1-2.8-9-9.1-9.4-9.3-9.4-0.1 0-0.2 0-0.3 0-7.4 2.1-11.6 9.7-12.7 11.9-0.9-0.3-1.9-0.3-2.9-0.1l-2.1 0.6c-1.1 0.3-1.9 1-2.5 1.8-1.8-1.1-9.6-5.5-17.2-3.3-0.1 0-0.2 0.1-0.3 0.1-0.2 0.2-5.3 3.8-2.8 12.9 0 0 0 0.1 0 0.1 0 0 0 0 0 0l0.1 0.5 0 0c0-0.1 0-0.1 0 0zm9.3 7.3c-0.7-0.1-3.8-0.7-6.1-4.9l7.7 4.3c-0.5 0.2-1 0.5-1.6 0.6zm3.7-1.7-11-6.1c0-0.1-0.1-0.2-0.1-0.3-1-3.5-0.7-6-0.1-7.7l16.3 9c-1.3 1.7-3 3.6-5.1 5.1zm33.3-9c-0.6 0.2-1.1 0.3-1.7 0.3l4.2-7.7c0.4 4.7-1.9 6.9-2.5 7.4zm1.9-10.9c0 0.1 0 0.2 0.1 0.3l-6 11c-2.6-0.1-5.1-0.7-7.1-1.5l8.9-16.4c1.5 1.2 3.1 3.1 4.1 6.6zm-7.4-8.1c0.3 0 0.9 0.1 1.7 0.5l-9.1 16.7c-0.9-0.4-1.6-0.8-2.1-1.1l8.4-15.7c0.4-0.2 0.7-0.3 1.1-0.4zm-4.3 2.2-5.7 10.6c0-0.1 0-0.2-0.1-0.2-0.3-0.7-0.7-1.2-1.3-1.7 0.7-1.4 3.1-5.7 7.1-8.7zm-13.1 10.1c0 0 0 0 0 0l2.1-0.6c0.3-0.1 0.5-0.1 0.8-0.1 1.1 0 2.2 0.7 2.7 1.8 0.3 0.8 0.3 1.6 0 2.4-0.4 0.8-1 1.3-1.8 1.5l-2.1 0.6c-0.8 0.2-1.7 0.1-2.4-0.3-0.7-0.4-1.2-1.2-1.3-2-0.3-1.5 0.5-2.9 2-3.3zm-4.1 3.6c0 0.2 0.1 0.4 0.1 0.5l-10.8-6.1c5.3 0.4 9.9 3.2 10.8 3.7-0.1 0.6-0.2 1.2-0.1 1.9zm-15.5-5.2c0.4-0.1 0.7-0.2 1.1-0.2l15.5 8.8c-0.3 0.5-0.6 1.2-1.2 2l-16.6-9.2c0.5-0.8 1-1.2 1.2-1.4z"/></svg>
