<svg xmlns:svg="http://www.w3.org/2000/svg" xmlns="http://www.w3.org/2000/svg" version="1.1" x="0" y="0" viewBox="0 0 80.9 88.5" enable-background="new 0 0 100 100" xml:space="preserve" width="80.9" height="88.5">
  <g transform="translate(-10.5,-6.2)">
    <path d="M48.3 41.2"/>
  </g>
  <g transform="translate(-10.5,-6.2)">
    <path d="M48.9 29.4"/>
  </g>
  <g transform="translate(-10.5,-6.2)">
    <path d="M53.7 41.2"/>
  </g>
  <g transform="translate(-10.5,-6.2)">
    <path d="m61.2 94.7 0 0c-4.3 0-4.4-0.6-4.4-0.9-0.1-1.1 4.1-1.7 7.7-2.1C64.4 86.9 63.8 72.8 63 65.8 51.6 64.3 52 29.2 52 27.7 51.9 25.8 61 25 61.4 25c1.4-0.1 2.7-0.2 4-0.2 3.7 0 5.6 0.5 5.7 1.4 0.2 1.5 5.4 36-5.6 39.4 0.1 7.1 1.6 21.1 2.1 25.9 1.3-0.1 2.5-0.1 3.5-0.1 4.3 0 4.3 0.6 4.4 0.9 0.1 1.4-7 2.1-9.2 2.2-1.9 0.1-3.6 0.2-5.1 0.2zm-3.4-1c0.4 0.1 1.5 0.3 3.4 0.3l0 0c1.5 0 3.2-0.1 5-0.2 4.5-0.4 7.4-1 8.3-1.4C74 92.2 73 92 71.1 92 70 92 68.6 92 67.3 92.1l-0.4 0 0-0.4C66.4 87.3 64.8 72.3 64.8 65.1l0-0.3 0.3-0.1C75.8 62 70.5 26.4 70.4 26c-0.1-0.2-1.2-0.7-5-0.7-1.2 0-2.6 0.1-3.9 0.2-5.5 0.5-8.6 1.5-8.7 2 0 0.4-0.4 36.5 10.6 37.4l0.3 0 0 0.3c0.9 6.9 1.4 20.9 1.6 26.6l0 0.4-0.3 0c-4 0.6-6.5 1.1-7.2 1.5z"/>
    <path d="M71.1 39.5C71 38.6 67.1 38.2 62.3 38.6 58 39 54.5 39.8 53.9 40.7l-0.1 0c0 0.1 0 0.2 0 0.2 0 0 0 0 0 0 0 0 0 0 0 0 1.1 10.4 3.8 23.7 10.3 23.2 6.8-0.5 7.5-13.9 7-24.6zm-5 7c0.3 0 0.6 0.2 0.6 0.6 0 0.3-0.2 0.6-0.5 0.7-0.3 0-0.6-0.2-0.6-0.6 0-0.3 0.2-0.6 0.5-0.7zm0 6.4c0 0.4-0.3 0.8-0.7 0.9-0.4 0-0.7-0.3-0.8-0.7 0-0.4 0.3-0.8 0.7-0.9 0.4-0.1 0.7 0.3 0.8 0.7zm-3 1.7c-0.6 0-1.1-0.4-1.1-1.1 0-0.6 0.4-1.2 1-1.2 0.6 0 1.1 0.4 1.1 1.1 0 0.6-0.4 1.1-1 1.2zm1.1 3.9c0.3 0 0.6 0.3 0.5 0.6 0 0.3-0.3 0.6-0.6 0.6-0.3 0-0.6-0.3-0.5-0.6 0-0.4 0.3-0.6 0.6-0.6zM63.4 48.2c0-0.4 0.3-0.8 0.7-0.9 0.4 0 0.7 0.3 0.8 0.7 0 0.4-0.3 0.8-0.7 0.9-0.4 0-0.8-0.3-0.8-0.7zm0.1 2.4c0 0.4-0.3 0.8-0.7 0.9-0.4 0-0.7-0.3-0.8-0.7 0-0.4 0.3-0.8 0.7-0.9 0.4-0.1 0.7 0.3 0.8 0.7zm-1.3-1c-0.4 0-0.7-0.3-0.8-0.7 0-0.4 0.3-0.8 0.7-0.9 0.4-0.1 0.7 0.3 0.8 0.7 0 0.5-0.3 0.9-0.7 0.9zm-0.5 0.7c0 0.3-0.2 0.6-0.5 0.7-0.3 0-0.6-0.2-0.6-0.6 0-0.3 0.2-0.6 0.5-0.7 0.3 0 0.6 0.3 0.6 0.6zm0.4 4.9c0.4 0 0.7 0.3 0.8 0.7 0 0.4-0.3 0.8-0.7 0.9-0.4 0.1-0.7-0.3-0.8-0.7 0-0.5 0.3-0.8 0.7-0.9zm0.7 2c0.4 0 0.7 0.3 0.8 0.7 0 0.4-0.3 0.8-0.7 0.9-0.4 0-0.7-0.3-0.8-0.7 0-0.4 0.3-0.8 0.7-0.9zM64 60c0.4 0 0.7 0.3 0.8 0.7 0 0.4-0.3 0.8-0.7 0.9-0.4 0.1-0.7-0.3-0.8-0.7 0-0.5 0.3-0.9 0.7-0.9zm0.6-2.9c-0.4 0-0.7-0.3-0.8-0.7 0-0.4 0.3-0.8 0.7-0.9 0.4 0 0.7 0.3 0.8 0.7 0 0.5-0.3 0.9-0.7 0.9zm0.3-2.4c0-0.3 0.2-0.6 0.5-0.7 0.3 0 0.6 0.2 0.6 0.6 0 0.4-0.2 0.6-0.5 0.7-0.3 0-0.6-0.2-0.6-0.6zm0.5 3.1c0.3 0 0.6 0.2 0.6 0.6 0 0.3-0.2 0.6-0.5 0.7-0.3 0-0.6-0.2-0.6-0.6 0-0.4 0.2-0.7 0.5-0.7zm-0.1-8.1c0 0.3-0.2 0.6-0.5 0.7-0.3 0-0.6-0.2-0.6-0.6 0-0.3 0.2-0.6 0.5-0.7 0.3 0 0.5 0.2 0.6 0.6zM64.9 45c0 0.3-0.2 0.6-0.5 0.7-0.3 0-0.6-0.2-0.6-0.6 0-0.3 0.2-0.6 0.5-0.7 0.3 0 0.6 0.3 0.6 0.6zm-1.1-3.1c0.4 0 0.7 0.3 0.8 0.7 0 0.4-0.3 0.8-0.7 0.9-0.4 0.1-0.7-0.3-0.8-0.7 0-0.5 0.3-0.9 0.7-0.9zm-0.1 4.4c0 0.4-0.3 0.8-0.7 0.9-0.4 0.1-0.7-0.3-0.8-0.7 0-0.4 0.3-0.8 0.7-0.9 0.4 0 0.8 0.3 0.8 0.7zm-2-3.8c0.4 0 0.7 0.3 0.8 0.7 0 0.4-0.3 0.8-0.7 0.9-0.4 0-0.7-0.3-0.8-0.7 0-0.5 0.3-0.8 0.7-0.9zm0.1 4.8c0 0.4-0.3 0.8-0.7 0.9-0.4 0-0.7-0.3-0.8-0.7 0-0.4 0.3-0.8 0.7-0.9 0.4-0.1 0.7 0.3 0.8 0.7zM58 44c0-0.4 0.3-0.8 0.7-0.9 0.4-0.1 0.7 0.3 0.8 0.7 0 0.4-0.3 0.8-0.7 0.9C58.4 44.8 58 44.4 58 44Zm0.5 2.1c0-0.6 0.4-1.2 1-1.2 0.6 0 1.1 0.4 1.1 1.1 0 0.6-0.4 1.2-1 1.2-0.5 0.1-1-0.4-1.1-1.1zm1.6 8.1c0-0.3 0.2-0.6 0.5-0.7 0.3-0.1 0.6 0.2 0.6 0.6 0 0.3-0.2 0.6-0.5 0.7-0.3 0-0.6-0.2-0.6-0.6zm1.6 7.4c-0.6 0-1.1-0.4-1.1-1.1 0-0.6 0.4-1.2 1-1.2 0.6 0 1.1 0.4 1.1 1.1 0 0.6-0.4 1.1-1 1.2zm1.4 1.5c-0.3 0-0.6-0.2-0.6-0.6 0-0.3 0.2-0.6 0.5-0.7 0.3 0 0.6 0.2 0.6 0.6 0.1 0.4-0.2 0.7-0.5 0.7zm1.6 0.2c-0.4 0-0.7-0.3-0.8-0.7 0-0.4 0.3-0.8 0.7-0.9 0.4 0 0.7 0.3 0.8 0.7 0 0.5-0.3 0.9-0.7 0.9zm1.4-1.9c-0.3 0-0.6-0.2-0.6-0.6 0-0.3 0.2-0.6 0.5-0.7 0.3 0 0.6 0.2 0.6 0.6 0 0.4-0.2 0.7-0.5 0.7zm1.2-2.6c-0.6 0-1.1-0.4-1.1-1.1 0-0.6 0.4-1.2 1-1.2 0.6 0 1.1 0.4 1.1 1.1 0 0.6-0.4 1.2-1 1.2z"/>
  </g>
  <g transform="translate(-10.5,-6.2)">
    <path d="m36.5 94.5c-2.2-0.2-9.3-0.9-9.2-2.2 0-0.3 0.1-0.9 4.4-0.9 1.1 0 2.3 0 3.5 0.1 0.5-4.8 2-18.8 2.1-25.9-11-3.4-5.8-38-5.6-39.4 0.1-0.9 2-1.4 5.7-1.4 1.3 0 2.6 0.1 4 0.2 0.4 0 9.6 0.8 9.4 2.7 0 1.5 0.4 36.6-11 38.1-0.9 7-1.4 21.2-1.5 25.9 3.6 0.4 7.8 1 7.7 2.1 0 0.3-0.1 0.9-4.4 0.9l0 0c-1.5 0-3.3-0.1-5.1-0.2zm1.4-2.1-0.3 0 0-0.4c0.2-5.7 0.7-19.7 1.6-26.6l0-0.3 0.3 0c11-0.9 10.6-37 10.6-37.4-0.2-0.5-3.2-1.5-8.7-2-1.4-0.1-2.7-0.2-3.9-0.2-3.7 0-4.9 0.5-5 0.7-0.1 0.4-5.4 36 5.3 38.7l0.3 0.1 0 0.3C38 72.5 36.5 87.5 36 91.9l0 0.4-0.4 0c-1.4-0.1-2.7-0.1-3.8-0.1-1.9 0-3 0.1-3.4 0.3 0.9 0.4 3.9 1 8.3 1.4 1.8 0.1 3.5 0.2 5 0.2l0 0c1.9 0 3-0.1 3.4-0.3-0.9-0.5-3.3-1-7.2-1.4z"/>
    <path d="M38.7 64.2C45.2 64.7 47.9 51.5 49 41c0 0 0 0 0 0 0 0 0 0 0 0 0-0.1 0-0.2 0-0.2l-0.1 0c-0.6-0.8-4.1-1.7-8.4-2.1-4.8-0.4-8.7 0-8.8 0.9-0.5 10.6 0.2 24 7 24.6zm-1.5-17c0 0.3-0.3 0.6-0.6 0.6-0.3 0-0.5-0.3-0.5-0.7 0-0.3 0.3-0.6 0.6-0.6 0.2 0.1 0.5 0.4 0.5 0.7zm0.3 5c0.4 0 0.7 0.4 0.7 0.9 0 0.4-0.4 0.8-0.8 0.7-0.4 0-0.7-0.4-0.7-0.9 0-0.4 0.4-0.7 0.8-0.7zm1.2 1.1c0-0.6 0.6-1.1 1.1-1.1 0.6 0 1 0.6 1 1.2 0 0.6-0.6 1.1-1.1 1.1-0.6 0-1.1-0.5-1-1.2zm0.5 5.8c0 0.3-0.2 0.6-0.5 0.6-0.3 0-0.6-0.3-0.6-0.6 0-0.3 0.2-0.6 0.5-0.6 0.3 0 0.6 0.2 0.6 0.6zM38.6 48.9c-0.4 0-0.7-0.4-0.7-0.9 0-0.4 0.4-0.8 0.8-0.7 0.4 0 0.7 0.4 0.7 0.9 0 0.4-0.4 0.7-0.8 0.7zm1.5 1c0.4 0 0.7 0.4 0.7 0.9 0 0.4-0.4 0.8-0.8 0.7-0.4 0-0.7-0.4-0.7-0.9 0-0.4 0.4-0.7 0.8-0.7zm-0.2-1.1c0-0.4 0.4-0.8 0.8-0.7 0.4 0.1 0.7 0.4 0.7 0.9 0 0.4-0.4 0.8-0.8 0.7-0.4-0.1-0.7-0.5-0.7-0.9zm1.8 0.9c0.3 0 0.5 0.3 0.5 0.7 0 0.3-0.3 0.6-0.6 0.6-0.3 0-0.5-0.3-0.5-0.7 0-0.3 0.2-0.6 0.6-0.6zm-0.4 6.4c0 0.4-0.4 0.8-0.8 0.7-0.4-0.1-0.7-0.4-0.7-0.9 0-0.4 0.4-0.8 0.8-0.7 0.4 0.1 0.7 0.4 0.7 0.9zm-0.6 2c0 0.4-0.4 0.8-0.8 0.7-0.4 0-0.7-0.4-0.7-0.9 0-0.4 0.4-0.8 0.8-0.7 0.4 0.1 0.7 0.5 0.7 0.9zm-1.3 2.7c0 0.4-0.4 0.8-0.8 0.7-0.4-0.1-0.7-0.4-0.7-0.9 0-0.4 0.4-0.8 0.8-0.7 0.4 0.1 0.7 0.5 0.7 0.9zm-1.9-4.5c0-0.4 0.4-0.8 0.8-0.7 0.4 0 0.7 0.4 0.7 0.9 0 0.4-0.4 0.8-0.8 0.7-0.4-0.1-0.7-0.5-0.7-0.9zm-0.2-1c-0.3 0-0.5-0.3-0.5-0.7 0-0.4 0.3-0.6 0.6-0.6 0.3 0 0.5 0.3 0.5 0.7-0.1 0.4-0.3 0.6-0.6 0.6zm0.5 3.2c0 0.3-0.3 0.6-0.6 0.6-0.3 0-0.5-0.3-0.5-0.7 0-0.3 0.3-0.6 0.6-0.6 0.3 0 0.6 0.3 0.5 0.7zm0.3-9.4c0.3 0 0.5 0.3 0.5 0.7 0 0.3-0.3 0.6-0.6 0.6-0.3 0-0.5-0.3-0.5-0.7 0-0.4 0.3-0.6 0.6-0.6zm0.3-4.7c0.3 0 0.5 0.3 0.5 0.7 0 0.3-0.3 0.6-0.6 0.6-0.3 0-0.5-0.3-0.5-0.7 0-0.3 0.3-0.6 0.6-0.6zm1.2-1.7c0 0.4-0.4 0.8-0.8 0.7-0.4-0.1-0.7-0.4-0.7-0.9 0-0.4 0.4-0.8 0.8-0.7 0.4 0.1 0.7 0.5 0.7 0.9zm0.2 2.9c0.4 0 0.7 0.4 0.7 0.9 0 0.4-0.4 0.8-0.8 0.7-0.4-0.1-0.7-0.4-0.7-0.9 0-0.5 0.4-0.7 0.8-0.7zm1.9-2.2c0 0.4-0.4 0.8-0.8 0.7-0.4 0-0.7-0.4-0.7-0.9 0-0.4 0.4-0.8 0.8-0.7 0.5 0.1 0.8 0.4 0.7 0.9zm0.1 3.2c0.4 0 0.7 0.4 0.7 0.9 0 0.4-0.4 0.8-0.8 0.7-0.4 0-0.7-0.4-0.7-0.9 0-0.4 0.4-0.8 0.8-0.7zM44 44.7c-0.4 0-0.7-0.4-0.7-0.9 0-0.4 0.4-0.8 0.8-0.7 0.4 0.1 0.7 0.4 0.7 0.9-0.1 0.4-0.4 0.7-0.8 0.7zm-0.9 2.5c-0.6 0-1-0.6-1-1.2 0-0.6 0.6-1.1 1.1-1.1 0.6 0 1 0.6 1 1.2 0 0.7-0.5 1.2-1.1 1.1zM42 54.8c-0.3 0-0.5-0.3-0.5-0.7 0-0.3 0.3-0.6 0.6-0.6 0.3 0 0.5 0.3 0.5 0.7 0 0.4-0.3 0.6-0.6 0.6zm-1.9 5.5c0-0.6 0.6-1.1 1.1-1.1 0.6 0 1 0.6 1 1.2 0 0.6-0.6 1.1-1.1 1.1-0.7 0-1.1-0.5-1-1.2zm-1 2.1c0-0.3 0.3-0.6 0.6-0.6 0.3 0 0.5 0.3 0.5 0.7 0 0.3-0.3 0.6-0.6 0.6-0.3 0-0.5-0.3-0.5-0.7zm-1.7 0c0-0.4 0.4-0.8 0.8-0.7 0.4 0 0.7 0.4 0.7 0.9 0 0.4-0.4 0.8-0.8 0.7-0.4 0-0.7-0.4-0.7-0.9zm-1.3-1.6c0-0.3 0.3-0.6 0.6-0.6 0.3 0 0.5 0.3 0.5 0.7 0 0.3-0.3 0.6-0.6 0.6-0.3-0.1-0.5-0.4-0.5-0.7zm-1.6-3.2c0-0.6 0.6-1.1 1.1-1.1 0.6 0 1 0.6 1 1.2 0 0.6-0.6 1.1-1.1 1.1-0.6 0-1.1-0.6-1-1.2z"/>
  </g>
  <g transform="translate(-10.5,-6.2)">
    <line x1="67.2" y1="17.8" x2="74.4" y2="11.3"/>
    <path d="m74.6 11.3c0 0.1 0 0.1-0.1 0.2L67.4 18c-0.1 0.1-0.2 0.1-0.3 0-0.1-0.1-0.1-0.2 0-0.3l7.1-6.5c0.1-0.1 0.2-0.1 0.3 0 0.1 0 0.1 0 0.1 0.1z"/>
  </g>
  <g transform="translate(-10.5,-6.2)">
    <line x1="74.4" y1="24.6" x2="87.1" y2="22.7"/>
    <path d="m87.3 22.7c0 0.1-0.1 0.2-0.2 0.2l-12.7 1.9c-0.1 0-0.2-0.1-0.2-0.2 0-0.1 0.1-0.2 0.2-0.2L87 22.5c0.2 0 0.3 0 0.3 0.2 0 0 0 0 0 0z"/>
  </g>
  <g transform="translate(-10.5,-6.2)">
    <path d="m91.4 39.5c0 0.1 0 0.1 0 0 0 0.2-0.2 0.2-0.3 0.2L77.3 35.2c-0.1 0-0.2-0.2-0.1-0.3 0-0.1 0.2-0.2 0.3-0.1l13.8 4.5c0.1 0.1 0.1 0.1 0.1 0.2z"/>
  </g>
  <g transform="translate(-10.5,-6.2)">
    <path d="m58.1 6.4c0 0 0 0 0 0l-0.6 10.7c0 0.1-0.1 0.2-0.2 0.2-0.1 0-0.2-0.1-0.2-0.2L57.7 6.4c0-0.1 0.1-0.2 0.2-0.2 0.1 0 0.2 0.1 0.2 0.2z"/>
  </g>
  <g transform="translate(-10.5,-6.2)">
    <line x1="34.6" y1="17.8" x2="27.5" y2="11.3"/>
    <path d="m34.9 17.8c0 0.1 0 0.1-0.1 0.1-0.1 0.1-0.2 0.1-0.3 0l-7.1-6.5c-0.1-0.1-0.1-0.2 0-0.3 0.1-0.1 0.2-0.1 0.3 0l7.1 6.5c0 0.1 0.1 0.2 0.1 0.2z"/>
  </g>
  <g transform="translate(-10.5,-6.2)">
    <line x1="27.5" y1="24.6" x2="14.8" y2="22.7"/>
    <path d="m27.7 24.6c0 0 0 0 0 0 0 0.1-0.1 0.2-0.2 0.2L14.8 22.9c-0.1 0-0.2-0.1-0.2-0.2 0-0.1 0.1-0.2 0.2-0.2l12.7 1.9c0.1 0 0.2 0 0.2 0.2z"/>
  </g>
  <g transform="translate(-10.5,-6.2)">
    <path d="m24.7 35c0 0.1-0.1 0.2-0.1 0.2l-13.8 4.5c-0.1 0-0.2 0-0.3-0.1 0-0.1 0-0.2 0.1-0.3l13.8-4.5c0.1 0 0.2 0 0.3 0.2 0 0 0 0 0 0z"/>
  </g>
  <g transform="translate(-10.5,-6.2)">
    <path d="m44.7 17.1c0 0.1-0.1 0.2-0.2 0.2-0.1 0-0.2-0.1-0.2-0.2L43.8 6.4c0-0.1 0.1-0.2 0.2-0.2 0.1 0 0.2 0.1 0.2 0.2l0.5 10.7c0-0.1 0-0.1 0 0z"/>
  </g>
</svg>
