<svg xmlns:svg="http://www.w3.org/2000/svg" xmlns="http://www.w3.org/2000/svg" viewBox="0 0 588.8 779.3" version="1.1" x="0" y="0" width="588.8" height="779.3">
  <g transform="translate(-48.592509,-44.680548)">
    <path d="m298.5 45.4c2.7-1.9 7.3 0.1 7.4 3.6 0.3 3-1.5 5.7-2.4 8.4-21.1 57.5-42.2 115.1-63.3 172.6-1.5 4.1-3.1 8.2-4 12.4-1.5 1.1-3.1 2.5-5.1 2.2-3 0.3-5.3-2.7-4.9-5.6 22.7-61.7 45.3-123.4 67.9-185.1 1.3-2.9 1.3-6.9 4.4-8.6zM547.6 68.6c2.3-2.6 4-7.4 8.4-6.3 3.8 0.3 4 4.6 3.9 7.5-23.4 27.7-46.3 55.9-69.5 83.8-39.7 48-79.5 95.9-119.1 143.9-2.5 3.1-7.8 1.6-8.5-2.3-0.9-4.1 3-6.5 5.1-9.3C427.7 213.4 487.7 141 547.6 68.6ZM373.8 131.2c4.1-7.7 8.1-15.5 12.2-23.2 3.7 7 7.3 14 11 21 0.6 0.9 1 2.3 2.3 2.4 7.9 1.8 15.8 3.2 23.7 4.8-5.7 6.5-11.5 12.9-17.2 19.4 1.1 8.8 2.1 17.5 3.1 26.3-7.6-3.7-15.2-7.5-22.9-11.3-7.6 3.7-15.2 7.5-22.9 11.3 1-8.8 2.1-17.5 3.1-26.3-5.7-6.5-11.5-12.9-17.2-19.4 8.3-1.7 16.5-3.3 24.8-5m6.6 8.9c-4.1 0.8-8.2 1.6-12.4 2.5 2.9 3.2 5.8 6.5 8.7 9.8-0.5 4.2-1 8.3-1.5 12.5 3.6-1.8 7.2-3.5 10.8-5.3 3.6 1.8 7.2 3.5 10.8 5.3-0.5-4.2-1-8.3-1.5-12.5 2.9-3.3 5.8-6.5 8.7-9.8-4.1-0.8-8.2-1.7-12.4-2.5-1.9-3.5-3.7-7-5.5-10.4-2 3.4-3.8 7-5.7 10.5zM546.8 168.2c4.1-7.7 8.1-15.5 12.2-23.2 4.1 7.7 8.1 15.5 12.2 23.2 8.3 1.7 16.5 3.3 24.8 5-5.7 6.5-11.5 12.9-17.2 19.4 1.1 8.8 2.1 17.5 3.1 26.3-7.6-3.7-15.2-7.5-22.9-11.3-7.6 3.7-15.2 7.5-22.9 11.3 1-8.8 2.1-17.5 3.1-26.3-5.7-6.5-11.5-12.9-17.2-19.4 8.3-1.7 16.5-3.3 24.8-5m6.6 8.9c-4.1 0.8-8.2 1.7-12.4 2.5 2.9 3.2 5.8 6.5 8.7 9.8-0.5 4.2-1 8.3-1.5 12.5 3.6-1.8 7.2-3.5 10.8-5.3 3.6 1.8 7.2 3.5 10.8 5.3-0.5-4.2-1-8.3-1.5-12.5 2.9-3.3 5.8-6.5 8.7-9.8-4.1-0.8-8.2-1.7-12.3-2.5-1.9-3.5-3.7-7.1-5.6-10.6-1.9 3.5-3.7 7.1-5.6 10.6zM291.2 203.4c4.1-7.4 7.8-14.9 11.8-22.4 4.1 7.7 8.1 15.4 12.1 23.2 8.3 1.8 16.6 3.4 24.8 5.1-5.7 6.5-11.5 12.9-17.2 19.5 1.1 8.8 2.1 17.5 3.1 26.3-7.6-3.7-15.2-7.5-22.9-11.3-7.6 3.7-15.2 7.5-22.9 11.3 1-8.8 2.1-17.5 3.1-26.3-5.7-6.5-11.5-12.9-17.2-19.4 7.4-1.5 14.7-3 22.1-4.4 1-0.4 2.5-0.2 3-1.4m6.2 9.8c-4.1 0.8-8.2 1.6-12.3 2.5 2.9 3.2 5.8 6.5 8.7 9.8-0.5 4.2-1 8.3-1.5 12.5 3.6-1.8 7.2-3.5 10.8-5.3 3.6 1.8 7.2 3.5 10.8 5.3-0.5-4.2-1-8.3-1.5-12.5 2.9-3.3 5.8-6.5 8.7-9.8-4.1-0.8-8.2-1.7-12.3-2.5-1.9-3.5-3.7-7-5.5-10.5-2 3.4-3.8 7-5.7 10.5zM469.2 270.3c6.1-11.1 12.2-22.2 18.3-33.3 6.1 11.1 12.2 22.2 18.3 33.3 12.4 2.4 24.8 4.8 37.2 7.2-8.6 9.3-17.3 18.5-25.9 27.8 1.6 12.6 3.1 25.2 4.7 37.7-11.4-5.4-22.8-10.7-34.2-16.1-11.5 5.3-22.9 10.8-34.4 16.1 1.6-12.6 3.1-25.2 4.7-37.7-8.6-9.3-17.3-18.5-25.9-27.8 12.4-2.4 24.8-4.8 37.2-7.2m18.3-12.5c-4.2 7.1-7.5 14.7-12.1 21.4-7.8 1.9-15.8 3.1-23.7 4.7 5.6 6 11.2 12 16.7 18-1 8.1-2 16.2-3 24.3 7-3.2 14-6.7 21-9.8 1.2-0.7 2.5 0.2 3.6 0.6 6.5 3.1 13 6.2 19.6 9.2-1-8.1-2-16.2-3-24.3 5.5-6 11.2-11.9 16.6-18-8-1.6-16-3-24-4.7-3.8-7.2-7.8-14.3-11.7-21.4zM181.2 251.2c4.7-0.8 9.6 0.4 13.5 3 104.6 67.4 209.2 134.8 313.8 202.2 4.7 3.2 10.3 5.7 13.2 10.8 4.5 7.5 4 16.9 1.5 25-3.2 9.9-9.8 18.5-18.2 24.6-16.5 12.3-33.6 23.6-50 36-14.9 10.4-29.8 20.9-44.4 31.7-14.7 10.2-29.3 20.6-43.7 31.2-18.6 12.6-36.5 26.3-55 39.1-14.1 9.9-27.8 20.3-42 30-13.7 9.6-27 19.8-40.9 29.2-47.9 34.5-96 68.6-144 102.9-5.5 4-12.1 7.2-19.1 6.9-5.6-0.1-10.9-3.2-13.8-8-3.8-6.1-4-13.6-2.8-20.5 8.9-46.2 17.9-92.4 26.9-138.5 8.3-44.7 17.8-89.2 26-134 5.7-28.3 11.3-56.6 16.8-84.9 6.2-33.4 13.2-66.6 19.6-99.9 3.4-17 6.3-34.1 10.2-51 2.5-11.9 9.4-22.9 19.2-30.1 3.9-2.8 8.4-5 13.3-5.7m-4.2 11.8c-8 4.3-13.5 12.1-16.9 20.3 112.5 75.5 225.1 151 337.6 226.5 8.9-6.2 16-15.8 17.2-26.8 0.6-5-0.3-11.1-5.1-13.9C403 400.4 296.2 331.5 189.3 262.7c-3.7-2.7-8.6-1.6-12.3 0.4m-19.4 30.7c-1 7.7-4.3 15.3-3.4 23.1 29.6 125 59.3 250 88.9 375 10.4-7.5 20.9-14.9 31.3-22.4-27.8-117.1-55.5-234.2-83.3-351.2-0.1-1.9-1.7-3-3.1-4-10.1-6.7-20.3-13.5-30.4-20.3m48.5 32.5c26.5 111.7 53 223.5 79.5 335.2 10.4-7.5 20.9-14.9 31.3-22.4-22.2-93.8-44.5-187.5-66.7-281.3-0.2-1.5-1.1-2.8-2.4-3.5-13.9-9.3-27.9-18.6-41.7-28m-58.4 17.1c-4.6 25-9.8 49.9-14.5 74.8-0.2 1.6 0 3.2 0.3 4.8 23.5 99 47 198 70.4 296.9 9.4-6.7 18.8-13.4 28.1-20.1-23.1-97.5-46.2-195-69.4-292.6-4.9-21.3-10.3-42.5-14.9-63.8m117.5 22.6c21 88.4 41.9 176.8 62.9 265.2 10.5-7.5 21.1-15 31.6-22.6-16.3-68.7-32.6-137.4-48.9-206.2-0.9-2.9-0.6-6.7-3.7-8.3-14-9.3-27.9-18.7-41.9-28.1m59.4 39.8c15.5 64.9 30.8 129.9 46.2 194.8 10.4-7.5 20.9-14.9 31.3-22.4-11.3-47.7-22.6-95.5-34-143.2-14.5-9.8-29.1-19.4-43.6-29.3m59.1 39.6c10 41.6 19.8 83.2 29.7 124.9 10.6-7.5 21.1-15.2 31.8-22.7-5.5-24.2-11.4-48.2-17.1-72.4-14.8-10-29.6-19.8-44.4-29.8m-256.8 4.6c-4.8 24.9-9.7 49.7-14.6 74.6-0.9 4.3 0.9 8.5 1.7 12.6 16.7 70.4 33.4 140.8 50.1 211.2 9.6-6.8 19.2-13.6 28.7-20.5C170.7 635.1 148.7 542.5 126.8 449.9m316.6 35.5c4.4 18 8.6 36.1 12.9 54.1 10.5-7.6 21.1-15.1 31.6-22.6-0.7-1.1-1.3-2.4-2.4-3.2-14-9.4-28.1-18.7-42-28.3m-337.6 71.8c-4.7 25-9.7 49.9-14.5 74.8-0.4 2.1-0.4 4.3 0.1 6.4 9.8 41.2 19.5 82.4 29.4 123.6 4.3 2.7 8.6 5.3 12.9 7.9 6.4-4.6 12.8-9.1 19.2-13.8C137.2 689.8 121.3 623.5 105.8 557.2M84.8 665c-4.2 22.4-8.7 44.8-13 67.2 11.3 6.9 22.6 13.7 33.8 20.7-7-29.3-14-58.5-20.8-87.8M69.7 742.7c-1.3 6.7-2.6 13.3-3.8 20 14.2 8.4 28.4 16.9 42.6 25.3 5.5-3.9 10.9-7.8 16.4-11.7C106.4 765.1 88.1 753.9 69.7 742.7m-5.9 30.4c-1.4 7.6-2.9 15.2-4.4 22.8-0.8 4.4-1.3 9.2 0.5 13.4 1 2.5 3.4 4.5 6.1 4.7 4.6 0.3 8.8-2 12.5-4.5 7.1-5 14.1-10.1 21.1-15.1C87.6 787.3 75.7 780.2 63.8 773.1ZM630.4 336.3c2.2-1.1 5.1-0.2 6.3 2 1.7 2.7 0.3 6.6-2.6 7.7-44.4 12-88.8 24.2-133.1 36.4-3.8 1.3-9.4-2-7.8-6.3 1.3-3.8 6-3.5 9.2-4.5 40.4-11 80.8-22.1 121.3-33.1 2.3-0.6 4.5-1.4 6.8-2.1zM569.5 405.2c4.7-7.4 8.2-15.5 12.5-23.2 4.1 7.7 8.1 15.5 12.2 23.2 8.3 1.7 16.5 3.4 24.8 5-5.7 6.5-11.5 12.9-17.2 19.4 1.1 8.8 2.1 17.5 3.1 26.3-7.6-3.7-15.2-7.5-22.9-11.3-7.6 3.7-15.2 7.5-22.9 11.3 1-8.8 2.1-17.5 3.1-26.3-5.7-6.5-11.5-12.9-17.2-19.4 8.1-1.8 16.4-3.1 24.5-5.1m6.9 9c-4.1 0.8-8.2 1.6-12.3 2.5 2.9 3.2 5.8 6.5 8.7 9.8-0.5 4.2-1 8.3-1.5 12.5 3.6-1.8 7.2-3.5 10.8-5.3 3.6 1.8 7.2 3.5 10.8 5.3-0.5-4.2-1-8.3-1.5-12.5 2.9-3.3 5.8-6.5 8.7-9.8-4.1-0.8-8.2-1.7-12.3-2.5-1.9-3.5-3.8-7.1-5.6-10.6-1.9 3.5-3.7 7.1-5.6 10.6z"/>
  </g>
</svg>
