<svg xmlns:svg="http://www.w3.org/2000/svg" xmlns="http://www.w3.org/2000/svg" viewBox="0 0 688.1 732.5" version="1.1" x="0" y="0" width="688.1" height="732.5">
  <g transform="translate(-15.97,-74.14)">
    <path d="m16 147.3c135.5-24.4 271-48.7 406.6-73.1 14 78.3 28.1 156.6 42.2 234.9 68.4 13.1 136.9 26.1 205.3 39.2 11.3 2.3 22.8 4.1 34 6.7 0 3.1-0.8 6.2-1.4 9.3-28.1 147.5-56.3 295-84.4 442.5-135.1-25.7-270.3-51.6-405.4-77.3 2.1-14.5 5.4-28.8 7.9-43.2 7.1-37.4 14.3-74.8 21.4-112.1-48.2 8.7-96.5 17.3-144.8 26.1C70.3 449.1 43.2 298.2 16 147.3m11.7 8C53.5 299.7 79.7 444 105.4 588.4 234.4 565.2 363.3 542 492.3 518.8 466.3 374.5 440.4 230.1 414.4 85.7 285.5 109 156.6 132.1 27.7 155.3m439 164.3c1.8 10.2 3.7 20.4 5.5 30.5 64.5 12.4 129 24.6 193.6 37-19.1 100.5-38.3 201-57.5 301.5-114.3-21.8-228.6-43.5-342.8-65.4 3.6-18.4 7-36.9 10.6-55.3-7.7 1.4-15.5 2.8-23.2 4.2-9.6 49.7-18.9 99.5-28.5 149.2 128.7 24.7 257.4 49.1 386.1 73.7 27.6-144 54.9-288.1 82.5-432.1-75.4-14.5-150.8-28.8-226.2-43.2m7.4 41.1c5.9 32.7 11.8 65.4 17.7 98.1 3.9-1.6 7.3-6 11.9-4.3 3.2 1.2 3.2 4.9 3.1 7.8-4.4 2.2-8.8 4.3-13.1 6.7 1.1 6.8 2.4 13.6 3.6 20.5 18.1-9.7 36.3-19.2 54.4-28.8 2.4-1.2 4.4-4 7.5-3.4 2.6 0 3.6 2.8 4.4 4.8-0.9 2-1.4 4.3-3.4 5.5-20.4 10.8-40.8 21.4-61.1 32.3 1.8 9 3.2 18.1 5 27.1-27.7 5.1-55.5 10-83.2 15-6.7 1.3-11.9 7-18.8 7.8-2.4 0.4-3.8-1.8-5-3.5-36.9 6.6-73.7 13.2-110.6 19.9-3.2 16.4-6.1 32.8-9.5 49.2 107.7 20.7 215.5 41.1 323.3 61.8C618.2 583 636 489 654.1 395.1 594 383.6 534 372.1 474 360.7ZM54.4 180c114.5-20.7 229-41.1 343.5-61.8 18.2 100.7 36.2 201.4 54.4 302.1-114.5 20.7-229 41.2-343.5 61.9C90.6 381.4 72.5 280.7 54.4 180m11.6 8.1C83 282.2 99.9 376.4 116.8 470.5 224.8 451.1 332.7 431.7 440.7 412.2 423.7 318.1 406.8 224 389.9 129.8 281.9 149.3 173.9 168.6 66 188.1ZM317.8 227.7c2-2.5 3.5-6.6 7.5-6.1 4.5 1 5.5 7 2.4 10-37.3 42.7-74.6 85.4-112 128-2.3 2.4-4.8 5.8-8.6 5.1-2.8-0.3-3.5-3.4-4.6-5.5 1.3-3.2 4.3-4.8 6.6-7.1 36.2-41.5 72.5-82.9 108.7-124.3zM265.8 241.5c1.4-2.3 4.4-2.7 6.8-1.9 2.2 1 2.8 3.6 4 5.5-20.5 23-40.6 46.4-61 69.5-3.5 4.1-7.2 8.1-10.5 12.4-1.3 2.3-4.3 1.9-6.4 1.2-2.4-1-2.8-3.9-2.8-6.2 20.4-23.3 40.8-46.6 61.2-70 3-3.4 6.1-6.8 8.7-10.5zM186.7 332.7c2.6-2.9 7.8-0.4 7.8 3.3 0.5 2.1-0.8 3.9-2.1 5.3-4.7 5-9.1 10.3-13.6 15.5-2.4 2.8-7.1 2.4-9.4-0.5 0.1-2-0.4-4.3 1.3-5.7 5.5-5.8 10.5-12.1 16-17.9z"/>
  </g>
</svg>
