<svg xmlns:svg="http://www.w3.org/2000/svg" xmlns="http://www.w3.org/2000/svg" version="1.1" x="0" y="0" viewBox="0 0 88 72.7" enable-background="new 0 0 100 100" xml:space="preserve" width="88" height="72.7">
  <path d="m60.1 16.8c-6.1 0-11.6 1.8-16.1 5-2.5-1.7-5.2-3-8.1-3.9l6.4-5.6c0.5-0.4 0.7-1 0.7-1.6 0-0.6-0.4-1.2-0.9-1.5L29 0.3c-0.7-0.5-1.6-0.5-2.2 0l-13.1 8.9c-0.5 0.4-0.8 0.9-0.9 1.5 0 0.6 0.2 1.2 0.7 1.6l6.5 5.6C8.4 21.4 0 32.1 0 44.8c0 15.4 12.5 27.9 27.9 27.9 6 0 11.5-1.9 16.1-5.1 4.7 3.3 10.3 5.1 16.1 5.1 15.4 0 27.9-12.5 27.9-27.9 0-15.4-12.5-27.9-27.9-27.9zm-33.1-0.3-1.8-4.6 5.4 0-1.8 4.5-1.8 0zm0.9-12.1 2.6 5.6-5.1 0 2.5-5.6 0 0zm4.9 7.6 3.8 0-5.2 4.5-0.4 0 1.8-4.5zm-1.7-5.4 5 3.4-3.4 0-1.6-3.4zm-6.4 0-1.6 3.4-3.5 0 5-3.4zm-5.6 5.4 3.9 0 1.8 4.6-0.4 0-5.3-4.6zm8.7 56.7C14.7 68.7 4 57.9 4 44.8c0-13.2 10.7-23.9 23.9-23.9 4.5 0 9 1.3 12.8 3.7-1.1 1-2.1 2.2-3 3.4-3.8-2.2-8.1-3.1-12.4-2.6-5.2 0.6-9.8 3.3-13.1 7.4-3.2 4.1-4.6 9.3-4 14.5 0.6 5.2 3.3 9.8 7.4 13.1 4.1 3.2 9.3 4.7 14.5 4 5.3-0.6 9.9-3.3 13.1-7.4 3.2-4.1 4.6-9.2 3.9-14.5-0.2-2-0.8-3.9-1.6-5.7 0.5-0.8 1-1.6 1.6-2.3 0.4-0.5 0.9-1 1.4-1.5 2.1 3.7 3.3 7.9 3.3 12 0 13.2-10.7 23.9-23.9 23.9zm8.2-9.6c-1.9 1.1-4.1 1.9-6.5 2.2-4.4 0.5-8.8-0.7-12.2-3.4-3.5-2.7-5.7-6.7-6.3-11.1-0.5-4.4 0.7-8.8 3.4-12.2 2.7-3.5 6.7-5.7 11.1-6.3 3.6-0.4 7.2 0.3 10.4 2.1-2.5 4.2-3.9 9.1-3.9 14.3 0 5.1 1.4 10 4 14.3zm7.7-18c0.1 0.6 0.2 1.1 0.3 1.7 0.2 2 0.1 3.9-0.3 5.7-0.1-0.7-0.3-1.3-0.3-2-0.2-1.9-0.1-3.7 0.3-5.5zm7.9-10.7c2-1.1 4.2-1.9 6.6-2.1 4.4-0.5 8.7 0.8 12.2 3.6 3.4 2.8 5.6 6.8 6.1 11.2 1 9.1-5.7 17.3-14.8 18.3-3.5 0.4-7-0.4-10-2.1 2.5-4.2 4-9.1 4-14.4 0-4.9-1.5-10-4.1-14.4zm8.4 38.3c-4.6 0-9-1.3-12.9-3.8 1.1-1 2-2.1 2.9-3.3 3 1.8 6.4 2.7 9.9 2.7 0.7 0 1.4 0 2.1-0.1 10.8-1.1 18.6-10.8 17.4-21.6-1.1-10.8-10.8-18.6-21.6-17.4-5.3 0.6-10 3.1-13.3 7.1-3.2 4-4.7 9.2-4.2 14.4 0.2 2.1 0.8 4.2 1.7 6.1-0.4 0.7-0.9 1.4-1.4 2.1-0.5 0.6-1 1.1-1.5 1.6-2.1-3.6-3.2-7.7-3.2-11.9 0-13.4 10.5-23.9 23.9-23.9C73.3 20.8 84 31.6 84 44.8c0 13.2-10.7 23.9-23.9 23.9z"/>
</svg>
