<svg xmlns:svg="http://www.w3.org/2000/svg" xmlns="http://www.w3.org/2000/svg" version="1.1" x="0" y="0" viewBox="0 0 58.5 60.6" enable-background="new 0 0 100 100" xml:space="preserve" width="58.5" height="60.6">
  <g transform="translate(-20.784,-19.749)">
    <circle cx="60.1" cy="73.7" r="1.6"/>
    <path d="m75.4 30.7-6.9 0c0.2-1.3 0.2-2.8 0-4.2-0.4-3.4-1.9-6.8-4.2-6.8 0 0 0 0 0 0-4.7 0-10 4.2-11.5 5.5-0.7-0.9-1.7-1.4-2.8-1.4-1.1 0-2.1 0.5-2.7 1.4-1.6-1.3-6.8-5.4-11.4-5.4 0 0 0 0 0 0-2.3 0-3.8 3.4-4.2 6.8-0.2 1.4-0.2 2.8 0 4.2l-6.9 0c-2.2 0-3.9 1.8-3.9 3.9l0 41.7c0 2.2 1.8 3.9 3.9 3.9l19.5 0 12 0 19.1 0c2.2 0 3.9-1.8 3.9-3.9l0-41.7C79.3 32.5 77.5 30.7 75.4 30.7ZM53.3 26.5c1.2-1 6.5-5.3 10.9-5.3 0 0 0 0 0 0 1.4 0 2.7 2.5 3.1 5.8 0.4 3.6-0.4 7.8-3.1 8.5-1.8 0.4-5.4-1.7-8.1-3.3-1.3-0.8-2.3-1.4-2.9-1.6 0.3-0.6 0.5-1.3 0.5-2.1 0-0.7-0.1-1.3-0.4-1.9zm-20.5 0.5c0.4-3.3 1.7-5.8 3.1-5.8 0 0 0 0 0 0 4.3 0 9.5 4.2 10.8 5.3-0.2 0.6-0.4 1.2-0.4 1.9 0 0.8 0.2 1.5 0.5 2.2-0.7 0.3-1.6 0.8-2.9 1.6-2.6 1.6-6.2 3.8-8.1 3.3-2.8-0.7-3.6-4.9-3.1-8.5zm11.5 33.1c-0.2 0-0.4-0.1-0.6-0.1-1.9 0-3.4 1.5-3.4 3.4 0 1.9 1.5 3.4 3.4 3.4 0.2 0 0.4 0 0.6-0.1l0 11.5-19.5 0c-1.1 0-2-0.9-2-2l0-41.7c0-1.1 0.9-2 2-2l7.4 0c0.6 1.8 1.8 3.2 3.5 3.6 0.2 0.1 0.5 0.1 0.8 0.1 2.2 0 5.3-1.8 7.9-3.4l0 1.2c-0.6 0.5-1.1 0.9-1.6 1.3-0.9 0.7-1.9 1.5-3.2 2.8-2.4 2.6-2 6.9-1.9 7.1l0.1 1.1 3.9-3.4c0.1 1.4 0.4 3.4 0.9 4l0.7 0.9 0.3-1.1c0.2-1 0.5-1.9 0.9-2.8l0 16zm2.2-21.6c-1.1 1-2.6 3.4-3.6 6.4-0.1-0.8-0.2-1.8-0.3-2.8l-0.1-1.1-3.9 3.3c0-1.4 0.3-3.6 1.7-5.1 1.2-1.3 2.1-2 3-2.7 0.7-0.5 1.5-1.1 2.3-2 0.8-0.8 1.6-2.1 2.1-2.9 0.4 0.4 0.9 0.7 1.5 0.8-0.8 2.2-2.1 5.3-2.8 6zM47.4 28.4c0-1.7 1.2-3.2 2.6-3.2 1.4 0 2.6 1.4 2.6 3.2 0 1.8-1.2 3.2-2.6 3.2-1.4 0-2.6-1.4-2.6-3.2zm6.1 10.2c-0.7-0.7-2-3.8-2.8-6 0.6-0.1 1-0.4 1.5-0.8 0.5 0.8 1.4 2.1 2.1 2.9 0.8 0.8 1.6 1.4 2.3 2 0.9 0.7 1.8 1.4 3 2.7 1.3 1.5 1.6 3.7 1.7 5.1l-3.9-3.3-0.1 1.1c-0.1 0.9-0.2 1.9-0.3 2.8-1-3-2.5-5.4-3.6-6.4zm23.8 37.8c0 1.1-0.9 2-2 2l-19.1 0 0-32.6c0.1 0.4 0.2 0.8 0.3 1.2l0.3 1.1 0.7-0.9c0.5-0.6 0.7-2.6 0.9-4l3.9 3.4 0.1-1.1c0-0.2 0.4-4.6-1.9-7.1-1.3-1.4-2.3-2.1-3.2-2.8-0.4-0.3-0.7-0.5-1.1-0.8l0-1.4c2.5 1.5 5.4 3.1 7.5 3.1 0.3 0 0.5 0 0.8-0.1 1.7-0.4 2.9-1.8 3.5-3.6l7.4 0c1.1 0 2 0.9 2 2l0 41.7zM46 28.5l0.1-0.6c-0.1 0-3-0.7-6.5-0.4-3.5 0.3-5.9 2.8-6 2.9l0.4 0.4c0 0 2.4-2.4 5.7-2.7 3.4-0.3 6.3 0.4 6.3 0.4zM60.4 28.1c3.3 0.3 5.7 2.7 5.7 2.7l0.4-0.4c-0.1-0.1-2.5-2.6-6-2.9-3.5-0.3-6.4 0.4-6.5 0.4l0.1 0.6c0 0 2.9-0.7 6.3-0.4z"/><circle cx="27.1" cy="40.5" r="2.6"/><circle cx="31.2" cy="63" r="1.5"/><circle cx="69.9" cy="60" r="1.4"/><circle cx="73.3" cy="41.1" r="2"/><polygon points="30.9 49.6 28.3 49.2 27.1 46.9 25.9 49.2 23.3 49.6 25.2 51.5 24.7 54.1 27.1 52.9 29.4 54.1 29 51.5 "/><polygon points="63.2 53.5 62.1 53.6 62.9 54.4 62.7 55.4 63.7 54.9 64.6 55.4 64.4 54.4 65.2 53.6 64.1 53.5 63.7 52.5 "/><polygon points="64.7 68.7 66.6 70.5 66.1 73.2 68.5 71.9 70.8 73.2 70.4 70.5 72.3 68.7 69.7 68.3 68.5 65.9 67.3 68.3 "/><polygon points="25.9 69.8 27.8 71.7 27.3 74.3 29.7 73.1 32 74.3 31.6 71.7 33.5 69.8 30.8 69.5 29.7 67.1 28.5 69.5 "/>
    <polygon points="66.2 41 67.7 39.5 65.6 39.2 64.7 37.4 63.7 39.2 61.6 39.5 63.1 41 62.8 43.1 64.7 42.1 66.5 43.1 "/>
  </g>
</svg>
